<svg xmlns="http://www.w3.org/2000/svg" viewBox="0 0 1200 820" preserveAspectRatio="xMidYMid slice" role="presentation">
  <circle cx="33.5" cy="17.7" r="14" fill="#ffffff"/>
  <circle cx="13.1" cy="80.5" r="14" fill="#ffffff"/>
  <circle cx="-7.3" cy="143.3" r="14" fill="#ffffff"/>
  <circle cx="96.3" cy="38.1" r="14" fill="#ffffff"/>
  <circle cx="75.9" cy="100.9" r="14" fill="#ffffff"/>
  <circle cx="55.5" cy="163.7" r="14" fill="#ffffff"/>
  <circle cx="35.1" cy="226.4" r="14" fill="#ffffff"/>
  <circle cx="14.7" cy="289.2" r="14" fill="#ffffff"/>
  <circle cx="-5.7" cy="352.0" r="14" fill="#ffffff"/>
  <circle cx="179.4" cy="-4.2" r="14" fill="#ffffff"/>
  <circle cx="159.0" cy="58.5" r="14" fill="#ffffff"/>
  <circle cx="138.6" cy="121.3" r="14" fill="#ffffff"/>
  <circle cx="118.2" cy="184.1" r="14" fill="#ffffff"/>
  <circle cx="97.8" cy="246.8" r="14" fill="#ffffff"/>
  <circle cx="77.4" cy="309.6" r="14" fill="#ffffff"/>
  <circle cx="57.1" cy="372.4" r="14" fill="#ffffff"/>
  <circle cx="36.7" cy="435.1" r="14" fill="#ffffff"/>
  <circle cx="16.3" cy="497.9" r="14" fill="#ffffff"/>
  <circle cx="-4.1" cy="560.7" r="14" fill="#ffffff"/>
  <circle cx="242.2" cy="16.2" r="14" fill="#ffffff"/>
  <circle cx="221.8" cy="78.9" r="14" fill="#ffffff"/>
  <circle cx="201.4" cy="141.7" r="14" fill="#ffffff"/>
  <circle cx="181.0" cy="204.5" r="14" fill="#ffffff"/>
  <circle cx="160.6" cy="267.2" r="14" fill="#ffffff"/>
  <circle cx="140.2" cy="330.0" r="14" fill="#ffffff"/>
  <circle cx="119.8" cy="392.8" r="14" fill="#ffffff"/>
  <circle cx="99.4" cy="455.5" r="14" fill="#ffffff"/>
  <circle cx="79.0" cy="518.3" r="14" fill="#ffffff"/>
  <circle cx="58.6" cy="581.1" r="14" fill="#ffffff"/>
  <circle cx="38.2" cy="643.9" r="14" fill="#ffffff"/>
  <circle cx="17.8" cy="706.6" r="14" fill="#ffffff"/>
  <circle cx="-2.5" cy="769.4" r="14" fill="#ffffff"/>
  <circle cx="305.0" cy="36.6" r="14" fill="#ffffff"/>
  <circle cx="284.6" cy="99.3" r="14" fill="#ffffff"/>
  <circle cx="264.2" cy="162.1" r="14" fill="#ffffff"/>
  <circle cx="243.8" cy="224.9" r="14" fill="#ffffff"/>
  <circle cx="223.4" cy="287.6" r="14" fill="#ffffff"/>
  <circle cx="203.0" cy="350.4" r="14" fill="#ffffff"/>
  <circle cx="182.6" cy="413.2" r="14" fill="#ffffff"/>
  <circle cx="162.2" cy="475.9" r="14" fill="#ffffff"/>
  <circle cx="141.8" cy="538.7" r="14" fill="#ffffff"/>
  <circle cx="121.4" cy="601.5" r="14" fill="#ffffff"/>
  <circle cx="101.0" cy="664.2" r="14" fill="#ffffff"/>
  <circle cx="80.6" cy="727.0" r="14" fill="#ffffff"/>
  <circle cx="60.2" cy="789.8" r="14" fill="#ffffff"/>
  <circle cx="388.1" cy="-5.8" r="14" fill="#ffffff"/>
  <circle cx="367.7" cy="56.9" r="14" fill="#ffffff"/>
  <circle cx="347.3" cy="119.7" r="14" fill="#ffffff"/>
  <circle cx="326.9" cy="182.5" r="14" fill="#ffffff"/>
  <circle cx="306.5" cy="245.3" r="14" fill="#ffffff"/>
  <circle cx="286.2" cy="308.0" r="14" fill="#ffffff"/>
  <circle cx="265.8" cy="370.8" r="14" fill="#ffffff"/>
  <circle cx="245.4" cy="433.6" r="14" fill="#ffffff"/>
  <circle cx="225.0" cy="496.3" r="14" fill="#ffffff"/>
  <circle cx="204.6" cy="559.1" r="14" fill="#ffffff"/>
  <circle cx="184.2" cy="621.9" r="14" fill="#ffffff"/>
  <circle cx="163.8" cy="684.6" r="14" fill="#ffffff"/>
  <circle cx="143.4" cy="747.4" r="14" fill="#ffffff"/>
  <circle cx="123.0" cy="810.2" r="14" fill="#ffffff"/>
  <circle cx="450.9" cy="14.6" r="14" fill="#ffffff"/>
  <circle cx="430.5" cy="77.3" r="14" fill="#ffffff"/>
  <circle cx="410.1" cy="140.1" r="14" fill="#ffffff"/>
  <circle cx="389.7" cy="202.9" r="14" fill="#ffffff"/>
  <circle cx="369.3" cy="265.6" r="14" fill="#ffffff"/>
  <circle cx="348.9" cy="328.4" r="14" fill="#ffffff"/>
  <circle cx="328.5" cy="391.2" r="14" fill="#ffffff"/>
  <circle cx="308.1" cy="454.0" r="14" fill="#ffffff"/>
  <circle cx="287.7" cy="516.7" r="14" fill="#ffffff"/>
  <circle cx="267.3" cy="579.5" r="14" fill="#ffffff"/>
  <circle cx="246.9" cy="642.3" r="14" fill="#ffffff"/>
  <circle cx="226.6" cy="705.0" r="14" fill="#ffffff"/>
  <circle cx="206.2" cy="767.8" r="14" fill="#ffffff"/>
  <circle cx="185.8" cy="830.6" r="14" fill="#ffffff"/>
  <circle cx="513.7" cy="35.0" r="14" fill="#ffffff"/>
  <circle cx="493.3" cy="97.7" r="14" fill="#ffffff"/>
  <circle cx="472.9" cy="160.5" r="14" fill="#ffffff"/>
  <circle cx="452.5" cy="223.3" r="14" fill="#ffffff"/>
  <circle cx="432.1" cy="286.0" r="14" fill="#ffffff"/>
  <circle cx="411.7" cy="348.8" r="14" fill="#ffffff"/>
  <circle cx="391.3" cy="411.6" r="14" fill="#ffffff"/>
  <circle cx="370.9" cy="474.4" r="14" fill="#ffffff"/>
  <circle cx="350.5" cy="537.1" r="14" fill="#ffffff"/>
  <circle cx="330.1" cy="599.9" r="14" fill="#ffffff"/>
  <circle cx="309.7" cy="662.7" r="14" fill="#ffffff"/>
  <circle cx="289.3" cy="725.4" r="14" fill="#ffffff"/>
  <circle cx="268.9" cy="788.2" r="14" fill="#ffffff"/>
  <circle cx="596.8" cy="-7.4" r="14" fill="#ffffff"/>
  <circle cx="576.4" cy="55.4" r="14" fill="#ffffff"/>
  <circle cx="556.0" cy="118.1" r="14" fill="#ffffff"/>
  <circle cx="535.6" cy="180.9" r="14" fill="#ffffff"/>
  <circle cx="515.3" cy="243.7" r="14" fill="#ffffff"/>
  <circle cx="494.9" cy="306.4" r="14" fill="#ffffff"/>
  <circle cx="474.5" cy="369.2" r="14" fill="#ffffff"/>
  <circle cx="454.1" cy="432.0" r="14" fill="#ffffff"/>
  <circle cx="433.7" cy="494.7" r="14" fill="#ffffff"/>
  <circle cx="413.3" cy="557.5" r="14" fill="#ffffff"/>
  <circle cx="392.9" cy="620.3" r="14" fill="#ffffff"/>
  <circle cx="372.5" cy="683.1" r="14" fill="#ffffff"/>
  <circle cx="352.1" cy="745.8" r="14" fill="#ffffff"/>
  <circle cx="331.7" cy="808.6" r="14" fill="#ffffff"/>
  <circle cx="659.6" cy="13.0" r="14" fill="#ffffff"/>
  <circle cx="639.2" cy="75.8" r="14" fill="#ffffff"/>
  <circle cx="618.8" cy="138.5" r="14" fill="#ffffff"/>
  <circle cx="598.4" cy="201.3" r="14" fill="#ffffff"/>
  <circle cx="578.0" cy="264.1" r="14" fill="#ffffff"/>
  <circle cx="557.6" cy="326.8" r="14" fill="#ffffff"/>
  <circle cx="537.2" cy="389.6" r="14" fill="#ffffff"/>
  <circle cx="516.8" cy="452.4" r="14" fill="#ffffff"/>
  <circle cx="496.4" cy="515.1" r="14" fill="#ffffff"/>
  <circle cx="476.0" cy="577.9" r="14" fill="#ffffff"/>
  <circle cx="455.6" cy="640.7" r="14" fill="#ffffff"/>
  <circle cx="435.3" cy="703.5" r="14" fill="#ffffff"/>
  <circle cx="414.9" cy="766.2" r="14" fill="#ffffff"/>
  <circle cx="394.5" cy="829.0" r="14" fill="#ffffff"/>
  <circle cx="722.4" cy="33.4" r="14" fill="#ffffff"/>
  <circle cx="702.0" cy="96.2" r="14" fill="#ffffff"/>
  <circle cx="681.6" cy="158.9" r="14" fill="#ffffff"/>
  <circle cx="661.2" cy="221.7" r="14" fill="#ffffff"/>
  <circle cx="640.8" cy="284.5" r="14" fill="#ffffff"/>
  <circle cx="620.4" cy="347.2" r="14" fill="#ffffff"/>
  <circle cx="600.0" cy="410.0" r="14" fill="#ffffff"/>
  <circle cx="579.6" cy="472.8" r="14" fill="#ffffff"/>
  <circle cx="559.2" cy="535.5" r="14" fill="#ffffff"/>
  <circle cx="538.8" cy="598.3" r="14" fill="#ffffff"/>
  <circle cx="518.4" cy="661.1" r="14" fill="#ffffff"/>
  <circle cx="498.0" cy="723.8" r="14" fill="#ffffff"/>
  <circle cx="477.6" cy="786.6" r="14" fill="#ffffff"/>
  <circle cx="805.5" cy="-9.0" r="14" fill="#ffffff"/>
  <circle cx="785.1" cy="53.8" r="14" fill="#ffffff"/>
  <circle cx="764.7" cy="116.5" r="14" fill="#ffffff"/>
  <circle cx="744.4" cy="179.3" r="14" fill="#ffffff"/>
  <circle cx="724.0" cy="242.1" r="14" fill="#ffffff"/>
  <circle cx="703.6" cy="304.9" r="14" fill="#ffffff"/>
  <circle cx="683.2" cy="367.6" r="14" fill="#ffffff"/>
  <circle cx="662.8" cy="430.4" r="14" fill="#ffffff"/>
  <circle cx="642.4" cy="493.2" r="14" fill="#ffffff"/>
  <circle cx="622.0" cy="555.9" r="14" fill="#ffffff"/>
  <circle cx="601.6" cy="618.7" r="14" fill="#ffffff"/>
  <circle cx="581.2" cy="681.5" r="14" fill="#ffffff"/>
  <circle cx="560.8" cy="744.2" r="14" fill="#ffffff"/>
  <circle cx="540.4" cy="807.0" r="14" fill="#ffffff"/>
  <circle cx="868.3" cy="11.4" r="14" fill="#ffffff"/>
  <circle cx="847.9" cy="74.2" r="14" fill="#ffffff"/>
  <circle cx="827.5" cy="136.9" r="14" fill="#ffffff"/>
  <circle cx="807.1" cy="199.7" r="14" fill="#ffffff"/>
  <circle cx="786.7" cy="262.5" r="14" fill="#ffffff"/>
  <circle cx="766.3" cy="325.3" r="14" fill="#ffffff"/>
  <circle cx="745.9" cy="388.0" r="14" fill="#ffffff"/>
  <circle cx="725.5" cy="450.8" r="14" fill="#ffffff"/>
  <circle cx="705.1" cy="513.6" r="14" fill="#ffffff"/>
  <circle cx="684.7" cy="576.3" r="14" fill="#ffffff"/>
  <circle cx="664.4" cy="639.1" r="14" fill="#ffffff"/>
  <circle cx="644.0" cy="701.9" r="14" fill="#ffffff"/>
  <circle cx="623.6" cy="764.6" r="14" fill="#ffffff"/>
  <circle cx="603.2" cy="827.4" r="14" fill="#ffffff"/>
  <circle cx="931.1" cy="31.8" r="14" fill="#ffffff"/>
  <circle cx="910.7" cy="94.6" r="14" fill="#ffffff"/>
  <circle cx="890.3" cy="157.3" r="14" fill="#ffffff"/>
  <circle cx="869.9" cy="220.1" r="14" fill="#ffffff"/>
  <circle cx="849.5" cy="282.9" r="14" fill="#ffffff"/>
  <circle cx="829.1" cy="345.6" r="14" fill="#ffffff"/>
  <circle cx="808.7" cy="408.4" r="14" fill="#ffffff"/>
  <circle cx="788.3" cy="471.2" r="14" fill="#ffffff"/>
  <circle cx="767.9" cy="534.0" r="14" fill="#ffffff"/>
  <circle cx="747.5" cy="596.7" r="14" fill="#ffffff"/>
  <circle cx="727.1" cy="659.5" r="14" fill="#ffffff"/>
  <circle cx="706.7" cy="722.3" r="14" fill="#ffffff"/>
  <circle cx="686.3" cy="785.0" r="14" fill="#ffffff"/>
  <circle cx="1014.2" cy="-10.6" r="14" fill="#ffffff"/>
  <circle cx="993.8" cy="52.2" r="14" fill="#ffffff"/>
  <circle cx="973.4" cy="115.0" r="14" fill="#ffffff"/>
  <circle cx="953.1" cy="177.7" r="14" fill="#ffffff"/>
  <circle cx="932.7" cy="240.5" r="14" fill="#ffffff"/>
  <circle cx="912.3" cy="303.3" r="14" fill="#ffffff"/>
  <circle cx="891.9" cy="366.0" r="14" fill="#ffffff"/>
  <circle cx="871.5" cy="428.8" r="14" fill="#ffffff"/>
  <circle cx="851.1" cy="491.6" r="14" fill="#ffffff"/>
  <circle cx="830.7" cy="554.4" r="14" fill="#ffffff"/>
  <circle cx="810.3" cy="617.1" r="14" fill="#ffffff"/>
  <circle cx="789.9" cy="679.9" r="14" fill="#ffffff"/>
  <circle cx="769.5" cy="742.7" r="14" fill="#ffffff"/>
  <circle cx="749.1" cy="805.4" r="14" fill="#ffffff"/>
  <circle cx="1077.0" cy="9.8" r="14" fill="#ffffff"/>
  <circle cx="1056.6" cy="72.6" r="14" fill="#ffffff"/>
  <circle cx="1036.2" cy="135.4" r="14" fill="#ffffff"/>
  <circle cx="1015.8" cy="198.1" r="14" fill="#ffffff"/>
  <circle cx="995.4" cy="260.9" r="14" fill="#ffffff"/>
  <circle cx="975.0" cy="323.7" r="14" fill="#ffffff"/>
  <circle cx="954.6" cy="386.4" r="14" fill="#ffffff"/>
  <circle cx="934.2" cy="449.2" r="14" fill="#ffffff"/>
  <circle cx="913.8" cy="512.0" r="14" fill="#ffffff"/>
  <circle cx="893.5" cy="574.7" r="14" fill="#ffffff"/>
  <circle cx="873.1" cy="637.5" r="14" fill="#ffffff"/>
  <circle cx="852.7" cy="700.3" r="14" fill="#ffffff"/>
  <circle cx="832.3" cy="763.1" r="14" fill="#ffffff"/>
  <circle cx="811.9" cy="825.8" r="14" fill="#ffffff"/>
  <circle cx="1139.8" cy="30.2" r="14" fill="#ffffff"/>
  <circle cx="1119.4" cy="93.0" r="14" fill="#ffffff"/>
  <circle cx="1099.0" cy="155.8" r="14" fill="#ffffff"/>
  <circle cx="1078.6" cy="218.5" r="14" fill="#ffffff"/>
  <circle cx="1058.2" cy="281.3" r="14" fill="#ffffff"/>
  <circle cx="1037.8" cy="344.1" r="14" fill="#ffffff"/>
  <circle cx="1017.4" cy="406.8" r="14" fill="#ffffff"/>
  <circle cx="997.0" cy="469.6" r="14" fill="#ffffff"/>
  <circle cx="976.6" cy="532.4" r="14" fill="#ffffff"/>
  <circle cx="956.2" cy="595.1" r="14" fill="#ffffff"/>
  <circle cx="935.8" cy="657.9" r="14" fill="#ffffff"/>
  <circle cx="915.4" cy="720.7" r="14" fill="#ffffff"/>
  <circle cx="895.0" cy="783.4" r="14" fill="#ffffff"/>
  <circle cx="1202.5" cy="50.6" r="14" fill="#ffffff"/>
  <circle cx="1182.2" cy="113.4" r="14" fill="#ffffff"/>
  <circle cx="1161.8" cy="176.1" r="14" fill="#ffffff"/>
  <circle cx="1141.4" cy="238.9" r="14" fill="#ffffff"/>
  <circle cx="1121.0" cy="301.7" r="14" fill="#ffffff"/>
  <circle cx="1100.6" cy="364.5" r="14" fill="#ffffff"/>
  <circle cx="1080.2" cy="427.2" r="14" fill="#ffffff"/>
  <circle cx="1059.8" cy="490.0" r="14" fill="#ffffff"/>
  <circle cx="1039.4" cy="552.8" r="14" fill="#ffffff"/>
  <circle cx="1019.0" cy="615.5" r="14" fill="#ffffff"/>
  <circle cx="998.6" cy="678.3" r="14" fill="#ffffff"/>
  <circle cx="978.2" cy="741.1" r="14" fill="#ffffff"/>
  <circle cx="957.8" cy="803.8" r="14" fill="#ffffff"/>
  <circle cx="1204.1" cy="259.3" r="14" fill="#ffffff"/>
  <circle cx="1183.7" cy="322.1" r="14" fill="#ffffff"/>
  <circle cx="1163.3" cy="384.9" r="14" fill="#ffffff"/>
  <circle cx="1142.9" cy="447.6" r="14" fill="#ffffff"/>
  <circle cx="1122.6" cy="510.4" r="14" fill="#ffffff"/>
  <circle cx="1102.2" cy="573.2" r="14" fill="#ffffff"/>
  <circle cx="1081.8" cy="635.9" r="14" fill="#ffffff"/>
  <circle cx="1061.4" cy="698.7" r="14" fill="#ffffff"/>
  <circle cx="1041.0" cy="761.5" r="14" fill="#ffffff"/>
  <circle cx="1020.6" cy="824.2" r="14" fill="#ffffff"/>
  <circle cx="1205.7" cy="468.0" r="14" fill="#ffffff"/>
  <circle cx="1185.3" cy="530.8" r="14" fill="#ffffff"/>
  <circle cx="1164.9" cy="593.6" r="14" fill="#ffffff"/>
  <circle cx="1144.5" cy="656.3" r="14" fill="#ffffff"/>
  <circle cx="1124.1" cy="719.1" r="14" fill="#ffffff"/>
  <circle cx="1103.7" cy="781.9" r="14" fill="#ffffff"/>
  <circle cx="1207.3" cy="676.7" r="14" fill="#ffffff"/>
  <circle cx="1186.9" cy="739.5" r="14" fill="#ffffff"/>
  <circle cx="1166.5" cy="802.3" r="14" fill="#ffffff"/>
</svg>
