<svg xmlns="http://www.w3.org/2000/svg" viewBox="0 0 1200 820" preserveAspectRatio="xMidYMid slice" role="presentation">
  <circle cx="1144.6" cy="322.1" r="10" fill="#D01C86"/>
  <circle cx="106.5" cy="479.2" r="7" fill="#2E97DC"/>
  <circle cx="96.5" cy="341.6" r="24" fill="#674C97"/>
  <circle cx="508.2" cy="683.2" r="6" fill="#F6C731"/>
  <circle cx="758.8" cy="479.4" r="20" fill="#D01C86"/>
  <circle cx="474.4" cy="808.1" r="7" fill="#2E97DC"/>
  <circle cx="344.2" cy="112.6" r="22" fill="#674C97"/>
  <circle cx="673.3" cy="562.2" r="11" fill="#F6C731"/>
  <circle cx="768.9" cy="303.3" r="8" fill="#D01C86"/>
  <circle cx="64.5" cy="164.2" r="8" fill="#F6C731"/>
  <circle cx="558.2" cy="764.0" r="10" fill="#674C97"/>
  <circle cx="958.0" cy="576.4" r="18" fill="#F6C731"/>
  <circle cx="357.1" cy="405.9" r="8" fill="#D01C86"/>
  <circle cx="342.1" cy="811.4" r="10" fill="#2E97DC"/>
  <circle cx="192.6" cy="278.0" r="12" fill="#F6C731"/>
  <circle cx="1161.8" cy="56.9" r="24" fill="#674C97"/>
  <circle cx="837.5" cy="488.9" r="14" fill="#F6C731"/>
  <circle cx="1013.4" cy="781.8" r="20" fill="#2E97DC"/>
  <circle cx="65.8" cy="578.4" r="20" fill="#F6C731"/>
  <circle cx="863.4" cy="733.6" r="12" fill="#F6C731"/>
  <circle cx="424.2" cy="502.7" r="14" fill="#D01C86"/>
  <circle cx="926.2" cy="100.1" r="22" fill="#2E97DC"/>
  <circle cx="1106.8" cy="407.1" r="14" fill="#674C97"/>
  <circle cx="660.1" cy="730.5" r="14" fill="#674C97"/>
  <circle cx="1191.5" cy="562.8" r="12" fill="#D01C86"/>
  <circle cx="175.5" cy="139.3" r="20" fill="#2E97DC"/>
  <circle cx="6.7" cy="686.8" r="20" fill="#674C97"/>
  <circle cx="-3.0" cy="342.2" r="12" fill="#F6C731"/>
  <circle cx="379.4" cy="96.9" r="8" fill="#D01C86"/>
  <circle cx="1085.8" cy="644.1" r="14" fill="#F6C731"/>
  <circle cx="477.2" cy="78.6" r="14" fill="#D01C86"/>
  <circle cx="-7.7" cy="118.5" r="16" fill="#F6C731"/>
  <circle cx="738.3" cy="50.8" r="11" fill="#D01C86"/>
  <circle cx="172.6" cy="202.9" r="10" fill="#2E97DC"/>
  <circle cx="568.6" cy="88.4" r="11" fill="#674C97"/>
  <circle cx="576.2" cy="252.7" r="14" fill="#F6C731"/>
  <circle cx="892.3" cy="392.1" r="14" fill="#D01C86"/>
  <circle cx="1148.4" cy="433.6" r="22" fill="#2E97DC"/>
  <circle cx="1181.9" cy="713.7" r="11" fill="#674C97"/>
  <circle cx="437.9" cy="131.6" r="8" fill="#674C97"/>
  <circle cx="263.2" cy="670.4" r="7" fill="#2E97DC"/>
  <circle cx="987.1" cy="610.5" r="18" fill="#2E97DC"/>
  <circle cx="591.2" cy="603.1" r="8" fill="#674C97"/>
  <circle cx="307.2" cy="570.9" r="12" fill="#F6C731"/>
  <circle cx="240.5" cy="513.7" r="14" fill="#D01C86"/>
  <circle cx="1097.6" cy="279.6" r="12" fill="#D01C86"/>
  <circle cx="943.3" cy="619.1" r="10" fill="#674C97"/>
  <circle cx="519.7" cy="523.6" r="16" fill="#F6C731"/>
  <circle cx="555.2" cy="613.4" r="14" fill="#D01C86"/>
  <circle cx="198.7" cy="98.2" r="18" fill="#2E97DC"/>
  <circle cx="972.7" cy="114.2" r="14" fill="#F6C731"/>
  <circle cx="181.6" cy="450.4" r="12" fill="#F6C731"/>
  <circle cx="117.0" cy="618.6" r="6" fill="#D01C86"/>
  <circle cx="996.6" cy="168.4" r="24" fill="#2E97DC"/>
  <circle cx="601.4" cy="630.4" r="12" fill="#674C97"/>
  <circle cx="501.5" cy="101.6" r="7" fill="#674C97"/>
  <circle cx="797.6" cy="673.4" r="14" fill="#2E97DC"/>
  <circle cx="176.6" cy="418.8" r="7" fill="#2E97DC"/>
  <circle cx="164.1" cy="509.6" r="16" fill="#674C97"/>
  <circle cx="388.4" cy="425.3" r="22" fill="#D01C86"/>
  <circle cx="931.1" cy="416.4" r="24" fill="#D01C86"/>
  <circle cx="387.9" cy="805.7" r="10" fill="#2E97DC"/>
  <circle cx="542.1" cy="437.8" r="14" fill="#674C97"/>
  <circle cx="1114.1" cy="738.3" r="16" fill="#F6C731"/>
  <circle cx="158.8" cy="93.7" r="10" fill="#D01C86"/>
  <circle cx="808.1" cy="350.1" r="20" fill="#2E97DC"/>
  <circle cx="945.3" cy="741.9" r="11" fill="#674C97"/>
  <circle cx="794.9" cy="111.5" r="6" fill="#F6C731"/>
  <circle cx="190.0" cy="550.3" r="11" fill="#D01C86"/>
  <circle cx="1200.8" cy="329.6" r="11" fill="#2E97DC"/>
  <circle cx="379.3" cy="595.7" r="12" fill="#674C97"/>
  <circle cx="549.7" cy="579.8" r="6" fill="#F6C731"/>
  <circle cx="750.7" cy="420.3" r="8" fill="#D01C86"/>
  <circle cx="322.7" cy="749.3" r="16" fill="#2E97DC"/>
  <circle cx="988.8" cy="702.3" r="22" fill="#674C97"/>
  <circle cx="173.6" cy="760.4" r="14" fill="#674C97"/>
  <circle cx="331.3" cy="660.5" r="18" fill="#D01C86"/>
  <circle cx="319.0" cy="6.1" r="20" fill="#2E97DC"/>
  <circle cx="93.8" cy="707.8" r="16" fill="#674C97"/>
  <circle cx="500.0" cy="757.3" r="6" fill="#D01C86"/>
  <circle cx="854.8" cy="776.3" r="8" fill="#674C97"/>
  <circle cx="362.9" cy="626.9" r="7" fill="#2E97DC"/>
  <circle cx="809.3" cy="218.2" r="10" fill="#674C97"/>
  <circle cx="10.7" cy="604.9" r="24" fill="#2E97DC"/>
  <circle cx="792.5" cy="535.5" r="16" fill="#F6C731"/>
  <circle cx="366.3" cy="171.9" r="10" fill="#2E97DC"/>
  <circle cx="161.9" cy="819.2" r="7" fill="#2E97DC"/>
  <circle cx="515.8" cy="38.3" r="16" fill="#F6C731"/>
  <circle cx="834.3" cy="29.8" r="18" fill="#D01C86"/>
  <circle cx="534.1" cy="212.1" r="14" fill="#674C97"/>
  <circle cx="33.9" cy="729.7" r="18" fill="#674C97"/>
  <circle cx="331.2" cy="540.4" r="12" fill="#F6C731"/>
  <circle cx="704.1" cy="434.4" r="18" fill="#F6C731"/>
  <circle cx="872.6" cy="529.7" r="12" fill="#2E97DC"/>
  <circle cx="754.8" cy="605.5" r="10" fill="#2E97DC"/>
  <circle cx="907.5" cy="467.2" r="8" fill="#D01C86"/>
  <circle cx="271.6" cy="18.1" r="6" fill="#D01C86"/>
  <circle cx="671.2" cy="516.8" r="10" fill="#2E97DC"/>
  <circle cx="312.8" cy="374.0" r="11" fill="#674C97"/>
  <circle cx="1083.8" cy="68.9" r="10" fill="#F6C731"/>
  <circle cx="878.9" cy="163.6" r="18" fill="#F6C731"/>
  <circle cx="1020.2" cy="56.2" r="11" fill="#674C97"/>
  <circle cx="742.2" cy="529.3" r="24" fill="#674C97"/>
  <circle cx="395.4" cy="536.7" r="20" fill="#2E97DC"/>
  <circle cx="833.7" cy="556.9" r="16" fill="#D01C86"/>
  <circle cx="339.2" cy="381.5" r="8" fill="#2E97DC"/>
  <circle cx="1181.4" cy="774.7" r="11" fill="#674C97"/>
  <circle cx="85.0" cy="415.5" r="14" fill="#674C97"/>
  <circle cx="247.2" cy="782.5" r="10" fill="#D01C86"/>
  <circle cx="1150.5" cy="102.9" r="16" fill="#674C97"/>
  <circle cx="471.2" cy="125.0" r="11" fill="#F6C731"/>
  <circle cx="138.0" cy="766.5" r="14" fill="#674C97"/>
  <circle cx="444.6" cy="320.5" r="16" fill="#D01C86"/>
  <circle cx="1117.3" cy="623.7" r="11" fill="#674C97"/>
  <circle cx="1129.7" cy="200.4" r="7" fill="#674C97"/>
  <circle cx="1067.3" cy="670.8" r="11" fill="#2E97DC"/>
  <circle cx="739.7" cy="107.8" r="10" fill="#F6C731"/>
  <circle cx="1100.9" cy="451.9" r="22" fill="#2E97DC"/>
  <circle cx="409.9" cy="240.9" r="12" fill="#674C97"/>
  <circle cx="789.7" cy="243.5" r="14" fill="#F6C731"/>
  <circle cx="600.7" cy="670.7" r="22" fill="#F6C731"/>
  <circle cx="1203.7" cy="368.2" r="14" fill="#2E97DC"/>
  <circle cx="288.8" cy="138.0" r="24" fill="#674C97"/>
  <circle cx="439.9" cy="668.6" r="18" fill="#F6C731"/>
  <circle cx="903.6" cy="337.1" r="30" fill="#D01C86"/>
  <circle cx="247.4" cy="217.9" r="8" fill="#F6C731"/>
  <circle cx="690.3" cy="293.1" r="14" fill="#2E97DC"/>
  <circle cx="321.6" cy="199.7" r="18" fill="#F6C731"/>
  <circle cx="517.1" cy="252.8" r="10" fill="#D01C86"/>
  <circle cx="468.1" cy="766.8" r="20" fill="#F6C731"/>
</svg>
