<svg xmlns="http://www.w3.org/2000/svg" viewBox="0 0 1200 820" preserveAspectRatio="xMidYMid slice" role="presentation">
  <circle cx="345.6" cy="752.4" r="22" fill="#10B4F5"/>
  <circle cx="272.4" cy="115.0" r="8" fill="#10B4F5"/>
  <circle cx="150.3" cy="436.2" r="22" fill="#9B2FFF"/>
  <circle cx="28.4" cy="97.6" r="17" fill="#FF1F9C"/>
  <circle cx="1006.6" cy="63.0" r="20" fill="#9B2FFF"/>
  <circle cx="897.6" cy="785.6" r="13" fill="#9B2FFF"/>
  <circle cx="1025.5" cy="399.0" r="17" fill="#FFE500"/>
  <circle cx="434.9" cy="351.3" r="7" fill="#FFE500"/>
  <circle cx="412.7" cy="489.1" r="20" fill="#9B2FFF"/>
  <circle cx="665.9" cy="617.7" r="13" fill="#10B4F5"/>
  <circle cx="643.7" cy="237.2" r="13" fill="#9B2FFF"/>
  <circle cx="300.0" cy="376.1" r="17" fill="#FFE500"/>
  <circle cx="693.9" cy="451.8" r="28" fill="#10B4F5"/>
  <circle cx="151.4" cy="351.8" r="15" fill="#FFE500"/>
  <circle cx="-5.3" cy="346.7" r="13" fill="#10B4F5"/>
  <circle cx="597.6" cy="575.6" r="26" fill="#FFE500"/>
  <circle cx="1069.6" cy="663.5" r="22" fill="#FF1F9C"/>
  <circle cx="447.7" cy="591.0" r="9" fill="#10B4F5"/>
  <circle cx="281.0" cy="406.9" r="8" fill="#FF1F9C"/>
  <circle cx="845.4" cy="24.3" r="9" fill="#9B2FFF"/>
  <circle cx="351.1" cy="129.5" r="22" fill="#FF1F9C"/>
  <circle cx="1172.9" cy="682.0" r="32" fill="#FF1F9C"/>
  <circle cx="1205.5" cy="93.6" r="28" fill="#9B2FFF"/>
  <circle cx="679.1" cy="576.4" r="20" fill="#9B2FFF"/>
  <circle cx="-1.0" cy="271.9" r="32" fill="#FF1F9C"/>
  <circle cx="620.3" cy="388.4" r="9" fill="#9B2FFF"/>
  <circle cx="889.9" cy="208.0" r="24" fill="#10B4F5"/>
  <circle cx="508.6" cy="189.1" r="22" fill="#9B2FFF"/>
  <circle cx="239.9" cy="285.3" r="15" fill="#FF1F9C"/>
  <circle cx="552.2" cy="49.3" r="11" fill="#10B4F5"/>
  <circle cx="786.5" cy="248.1" r="40" fill="#9B2FFF"/>
  <circle cx="465.9" cy="43.2" r="8" fill="#10B4F5"/>
  <circle cx="345.8" cy="282.6" r="13" fill="#FF1F9C"/>
  <circle cx="529.3" cy="724.7" r="15" fill="#FF1F9C"/>
  <circle cx="642.6" cy="100.1" r="17" fill="#9B2FFF"/>
  <circle cx="1077.8" cy="448.0" r="24" fill="#FFE500"/>
  <circle cx="1079.8" cy="754.7" r="40" fill="#FF1F9C"/>
  <circle cx="1125.2" cy="50.8" r="17" fill="#10B4F5"/>
  <circle cx="49.1" cy="190.8" r="28" fill="#10B4F5"/>
  <circle cx="948.0" cy="630.3" r="11" fill="#FFE500"/>
  <circle cx="746.7" cy="694.0" r="11" fill="#FF1F9C"/>
  <circle cx="354.2" cy="64.6" r="9" fill="#10B4F5"/>
  <circle cx="195.1" cy="5.0" r="36" fill="#9B2FFF"/>
  <circle cx="187.2" cy="810.6" r="15" fill="#9B2FFF"/>
  <circle cx="125.0" cy="249.9" r="32" fill="#FFE500"/>
  <circle cx="317.6" cy="648.1" r="13" fill="#10B4F5"/>
  <circle cx="395.7" cy="775.5" r="20" fill="#9B2FFF"/>
  <circle cx="498.0" cy="822.4" r="15" fill="#FFE500"/>
  <circle cx="555.2" cy="632.6" r="9" fill="#10B4F5"/>
  <circle cx="688.7" cy="20.6" r="36" fill="#10B4F5"/>
  <circle cx="117.1" cy="484.3" r="28" fill="#9B2FFF"/>
  <circle cx="252.6" cy="615.1" r="28" fill="#FFE500"/>
  <circle cx="354.6" cy="509.8" r="26" fill="#FFE500"/>
  <circle cx="266.5" cy="10.0" r="22" fill="#10B4F5"/>
  <circle cx="636.9" cy="0.0" r="13" fill="#9B2FFF"/>
  <circle cx="786.0" cy="500.4" r="11" fill="#FFE500"/>
  <circle cx="1103.5" cy="611.1" r="24" fill="#FF1F9C"/>
  <circle cx="820.5" cy="594.6" r="28" fill="#FF1F9C"/>
  <circle cx="858.8" cy="96.8" r="22" fill="#9B2FFF"/>
  <circle cx="60.7" cy="528.5" r="22" fill="#FF1F9C"/>
  <circle cx="1057.6" cy="310.6" r="11" fill="#FFE500"/>
  <circle cx="616.1" cy="48.3" r="7" fill="#9B2FFF"/>
  <circle cx="453.5" cy="96.2" r="11" fill="#9B2FFF"/>
  <circle cx="1124.9" cy="242.9" r="17" fill="#FF1F9C"/>
  <circle cx="465.7" cy="394.5" r="13" fill="#FF1F9C"/>
  <circle cx="386.7" cy="242.7" r="9" fill="#10B4F5"/>
  <circle cx="789.8" cy="791.1" r="20" fill="#10B4F5"/>
  <circle cx="1190.2" cy="141.0" r="7" fill="#FFE500"/>
  <circle cx="961.3" cy="705.1" r="24" fill="#FF1F9C"/>
  <circle cx="416.0" cy="35.3" r="28" fill="#10B4F5"/>
  <circle cx="850.6" cy="348.5" r="24" fill="#9B2FFF"/>
  <circle cx="499.9" cy="228.5" r="8" fill="#10B4F5"/>
  <circle cx="275.7" cy="269.3" r="17" fill="#FF1F9C"/>
  <circle cx="536.2" cy="344.3" r="20" fill="#10B4F5"/>
  <circle cx="760.6" cy="109.3" r="40" fill="#9B2FFF"/>
  <circle cx="1093.3" cy="8.1" r="15" fill="#FFE500"/>
  <circle cx="677.1" cy="518.6" r="24" fill="#FFE500"/>
  <circle cx="590.1" cy="453.2" r="20" fill="#FFE500"/>
  <circle cx="476.1" cy="321.2" r="36" fill="#FFE500"/>
  <circle cx="1006.2" cy="488.7" r="24" fill="#FFE500"/>
  <circle cx="117.2" cy="704.6" r="13" fill="#FFE500"/>
  <circle cx="870.8" cy="14.5" r="8" fill="#FF1F9C"/>
  <circle cx="223.9" cy="751.3" r="17" fill="#9B2FFF"/>
  <circle cx="186.4" cy="636.6" r="7" fill="#FFE500"/>
  <circle cx="1061.0" cy="163.1" r="7" fill="#FF1F9C"/>
  <circle cx="470.0" cy="757.7" r="7" fill="#FFE500"/>
  <circle cx="536.5" cy="774.3" r="9" fill="#FF1F9C"/>
  <circle cx="845.4" cy="460.3" r="17" fill="#FFE500"/>
  <circle cx="35.5" cy="685.0" r="17" fill="#FF1F9C"/>
  <circle cx="1199.9" cy="-6.4" r="7" fill="#FF1F9C"/>
  <circle cx="941.3" cy="46.0" r="11" fill="#FFE500"/>
  <circle cx="839.8" cy="152.5" r="11" fill="#FF1F9C"/>
  <circle cx="751.9" cy="593.5" r="13" fill="#9B2FFF"/>
  <circle cx="536.9" cy="493.8" r="26" fill="#10B4F5"/>
  <circle cx="696.6" cy="776.0" r="24" fill="#FF1F9C"/>
  <circle cx="869.8" cy="420.4" r="13" fill="#FFE500"/>
  <circle cx="495.0" cy="642.5" r="7" fill="#FF1F9C"/>
  <circle cx="859.1" cy="665.9" r="24" fill="#10B4F5"/>
  <circle cx="1084.1" cy="545.6" r="8" fill="#10B4F5"/>
  <circle cx="929.1" cy="821.3" r="7" fill="#FFE500"/>
  <circle cx="560.4" cy="589.4" r="7" fill="#FF1F9C"/>
  <circle cx="88.6" cy="331.8" r="17" fill="#10B4F5"/>
  <circle cx="136.2" cy="121.2" r="26" fill="#9B2FFF"/>
  <circle cx="48.9" cy="247.7" r="15" fill="#FFE500"/>
  <circle cx="567.7" cy="247.6" r="26" fill="#9B2FFF"/>
  <circle cx="193.9" cy="266.8" r="8" fill="#FFE500"/>
  <circle cx="928.0" cy="554.7" r="15" fill="#9B2FFF"/>
  <circle cx="575.7" cy="11.2" r="13" fill="#FFE500"/>
  <circle cx="957.0" cy="488.5" r="17" fill="#FF1F9C"/>
  <circle cx="759.2" cy="1.7" r="11" fill="#10B4F5"/>
  <circle cx="1171.9" cy="47.1" r="22" fill="#10B4F5"/>
  <circle cx="983.3" cy="255.0" r="13" fill="#FFE500"/>
  <circle cx="336.7" cy="182.1" r="15" fill="#FF1F9C"/>
  <circle cx="1078.8" cy="80.1" r="17" fill="#10B4F5"/>
  <circle cx="257.5" cy="558.6" r="11" fill="#9B2FFF"/>
  <circle cx="293.4" cy="487.2" r="11" fill="#FFE500"/>
  <circle cx="396.3" cy="341.1" r="9" fill="#FFE500"/>
  <circle cx="1023.1" cy="323.0" r="7" fill="#10B4F5"/>
  <circle cx="447.6" cy="232.2" r="22" fill="#9B2FFF"/>
  <circle cx="1202.8" cy="371.4" r="22" fill="#10B4F5"/>
  <circle cx="122.0" cy="653.6" r="11" fill="#FF1F9C"/>
  <circle cx="685.4" cy="205.4" r="9" fill="#FFE500"/>
  <circle cx="80.8" cy="22.8" r="8" fill="#9B2FFF"/>
  <circle cx="529.9" cy="297.4" r="9" fill="#10B4F5"/>
  <circle cx="881.7" cy="708.0" r="17" fill="#FF1F9C"/>
  <circle cx="588.0" cy="680.4" r="24" fill="#9B2FFF"/>
  <circle cx="682.4" cy="735.1" r="13" fill="#FFE500"/>
  <circle cx="56.6" cy="607.2" r="8" fill="#10B4F5"/>
  <circle cx="585.0" cy="167.2" r="11" fill="#FF1F9C"/>
  <circle cx="1032.1" cy="23.4" r="17" fill="#FFE500"/>
  <circle cx="765.7" cy="312.7" r="9" fill="#9B2FFF"/>
  <circle cx="675.3" cy="265.1" r="17" fill="#FFE500"/>
  <circle cx="560.9" cy="784.2" r="7" fill="#FF1F9C"/>
  <circle cx="1136.7" cy="201.5" r="7" fill="#FF1F9C"/>
  <circle cx="146.6" cy="740.0" r="9" fill="#9B2FFF"/>
  <circle cx="197.1" cy="382.9" r="26" fill="#FFE500"/>
  <circle cx="965.0" cy="573.0" r="11" fill="#FFE500"/>
  <circle cx="615.4" cy="296.4" r="11" fill="#10B4F5"/>
  <circle cx="622.2" cy="342.3" r="9" fill="#9B2FFF"/>
  <circle cx="297.5" cy="698.6" r="26" fill="#FFE500"/>
  <circle cx="131.0" cy="597.6" r="28" fill="#FF1F9C"/>
  <circle cx="810.3" cy="710.4" r="22" fill="#10B4F5"/>
  <circle cx="826.8" cy="827.7" r="26" fill="#FFE500"/>
  <circle cx="394.8" cy="573.7" r="28" fill="#FFE500"/>
  <circle cx="408.4" cy="277.3" r="22" fill="#FF1F9C"/>
  <circle cx="46.6" cy="806.2" r="15" fill="#10B4F5"/>
  <circle cx="1203.0" cy="277.6" r="8" fill="#FF1F9C"/>
  <circle cx="982.6" cy="327.5" r="8" fill="#FFE500"/>
  <circle cx="880.1" cy="739.0" r="7" fill="#FF1F9C"/>
  <circle cx="675.3" cy="409.6" r="9" fill="#10B4F5"/>
  <circle cx="743.5" cy="291.7" r="13" fill="#9B2FFF"/>
  <circle cx="1005.7" cy="200.5" r="24" fill="#FF1F9C"/>
  <circle cx="779.7" cy="743.6" r="9" fill="#9B2FFF"/>
  <circle cx="167.2" cy="557.2" r="13" fill="#FF1F9C"/>
  <circle cx="255.6" cy="455.4" r="7" fill="#9B2FFF"/>
  <circle cx="50.8" cy="286.1" r="9" fill="#10B4F5"/>
  <circle cx="51.0" cy="731.9" r="9" fill="#FF1F9C"/>
  <circle cx="778.3" cy="412.9" r="11" fill="#10B4F5"/>
  <circle cx="1105.4" cy="281.1" r="7" fill="#FFE500"/>
  <circle cx="1120.4" cy="526.3" r="22" fill="#FFE500"/>
  <circle cx="323.7" cy="474.0" r="15" fill="#FF1F9C"/>
  <circle cx="850.5" cy="185.6" r="11" fill="#10B4F5"/>
  <circle cx="1013.9" cy="822.9" r="7" fill="#10B4F5"/>
  <circle cx="947.3" cy="792.2" r="9" fill="#FFE500"/>
  <circle cx="1002.5" cy="108.3" r="15" fill="#FF1F9C"/>
  <circle cx="7.7" cy="456.9" r="22" fill="#10B4F5"/>
  <circle cx="142.2" cy="164.8" r="9" fill="#FFE500"/>
  <circle cx="327.3" cy="436.7" r="15" fill="#FFE500"/>
  <circle cx="979.7" cy="29.3" r="13" fill="#FF1F9C"/>
  <circle cx="1150.8" cy="370.9" r="17" fill="#10B4F5"/>
  <circle cx="1108.6" cy="137.8" r="24" fill="#9B2FFF"/>
  <circle cx="369.0" cy="426.4" r="8" fill="#FFE500"/>
  <circle cx="877.9" cy="561.4" r="13" fill="#FF1F9C"/>
  <circle cx="71.6" cy="576.0" r="8" fill="#10B4F5"/>
  <circle cx="473.6" cy="682.8" r="20" fill="#9B2FFF"/>
  <circle cx="417.7" cy="528.0" r="13" fill="#10B4F5"/>
  <circle cx="473.6" cy="484.8" r="8" fill="#FF1F9C"/>
  <circle cx="738.8" cy="52.1" r="9" fill="#FF1F9C"/>
  <circle cx="215.8" cy="307.1" r="8" fill="#FFE500"/>
  <circle cx="813.6" cy="51.9" r="9" fill="#FFE500"/>
  <circle cx="1191.4" cy="620.1" r="15" fill="#FF1F9C"/>
  <circle cx="872.4" cy="271.9" r="28" fill="#10B4F5"/>
  <circle cx="209.9" cy="339.4" r="13" fill="#9B2FFF"/>
  <circle cx="729.7" cy="177.7" r="11" fill="#9B2FFF"/>
  <circle cx="751.8" cy="433.8" r="13" fill="#FFE500"/>
  <circle cx="160.4" cy="493.4" r="7" fill="#10B4F5"/>
  <circle cx="883.7" cy="390.7" r="7" fill="#FF1F9C"/>
  <circle cx="953.0" cy="179.0" r="11" fill="#FFE500"/>
  <circle cx="113.0" cy="181.0" r="8" fill="#FF1F9C"/>
  <circle cx="921.2" cy="420.0" r="15" fill="#9B2FFF"/>
  <circle cx="665.2" cy="820.5" r="8" fill="#9B2FFF"/>
  <circle cx="186.5" cy="106.5" r="8" fill="#10B4F5"/>
  <circle cx="838.5" cy="525.5" r="9" fill="#FF1F9C"/>
  <circle cx="342.5" cy="233.1" r="8" fill="#9B2FFF"/>
  <circle cx="809.4" cy="339.7" r="11" fill="#9B2FFF"/>
  <circle cx="346.8" cy="322.8" r="13" fill="#FFE500"/>
  <circle cx="228.1" cy="705.7" r="8" fill="#FF1F9C"/>
  <circle cx="286.8" cy="538.8" r="13" fill="#FF1F9C"/>
  <circle cx="928.7" cy="277.1" r="22" fill="#9B2FFF"/>
  <circle cx="1160.5" cy="564.0" r="24" fill="#FFE500"/>
</svg>
